# xmcd
#
# Track frame offsets:
#	150
#	6856
#	26120
#	42989
#	57228
#	62903
#	69188
#	72553
#	78492
#	92102
#	107653
#	127055
#	131652
#	141976
#	155977
#	169065
#	191130
#
# Disc length: 2635 seconds
#
# Revision: 1
# Processed by: cddbd v1.4PL0 Copyright (c) Steve Scherf et al.
# Submitted via: audiograbber 1.80
#
DISCID=030a4911
DTITLE=Коллекция СВ - Школа (1992)
DYEAR=1900
DGENRE=
TTITLE0=Интродукция
TTITLE1=Э. Т. А. Гофман
TTITLE2=Карина
TTITLE3=Ноктюрн
TTITLE4=Жига
TTITLE5=Бурре
TTITLE6=Интродукция
TTITLE7=Песенная тема
TTITLE8=Фригийская тема
TTITLE9=Сарабанда
TTITLE10=Фуга
TTITLE11=Интродукция
TTITLE12=Гавот
TTITLE13=Прелюдия
TTITLE14=Слеза
TTITLE15="СВ"
TTITLE16=Интродукция
EXTD=
EXTT0=
EXTT1=
EXTT2=
EXTT3=
EXTT4=
EXTT5=
EXTT6=
EXTT7=
EXTT8=
EXTT9=
EXTT10=
EXTT11=
EXTT12=
EXTT13=
EXTT14=
EXTT15=
EXTT16=
PLAYORDER=
